<svg xmlns="http://www.w3.org/2000/svg" width="16" height="16" viewBox="0 0 16 16" fill="none">
  <path fill-rule="evenodd" clip-rule="evenodd" d="M8.00006 15.5017C12.1422 15.5017 15.5001 12.1438 15.5001 8.00171C15.5001 3.85957 12.1422 0.501709 8.00006 0.501709C3.85793 0.501709 0.500061 3.85957 0.500061 8.00171C0.500061 12.1438 3.85793 15.5017 8.00006 15.5017ZM9.98878 6.99045C10.2085 6.77078 10.2085 6.41462 9.98878 6.19495C9.76912 5.97528 9.41296 5.97528 9.19329 6.19495L8.00005 7.38819L6.8068 6.19495C6.58714 5.97528 6.23098 5.97528 6.01131 6.19495C5.79164 6.41462 5.79164 6.77078 6.01131 6.99045L7.20455 8.18369L6.01131 9.37693C5.79164 9.5966 5.79164 9.95276 6.01131 10.1724C6.23098 10.3921 6.58714 10.3921 6.80681 10.1724L8.00005 8.97919L9.19329 10.1724C9.41296 10.3921 9.76912 10.3921 9.98879 10.1724C10.2085 9.95276 10.2085 9.5966 9.98879 9.37693L8.79554 8.18369L9.98878 6.99045Z" fill="#292929" fill-opacity="0.5"/>
</svg>