<svg xmlns="http://www.w3.org/2000/svg" width="18" height="19" viewBox="0 0 18 19" fill="none">
  <path d="M15.375 17.5625H2.625C2.3175 17.5625 2.0625 17.3075 2.0625 17C2.0625 16.6925 2.3175 16.4375 2.625 16.4375H15.375C15.6825 16.4375 15.9375 16.6925 15.9375 17C15.9375 17.3075 15.6825 17.5625 15.375 17.5625Z" fill="#1F3832" stroke="#292D32" stroke-width="0.5"/>
  <path d="M13.5525 9.31437C13.41 9.31437 13.2675 9.36687 13.155 9.47936L9 13.6344L4.845 9.47936C4.6275 9.26187 4.2675 9.26187 4.05 9.47936C3.8325 9.69687 3.8325 10.0569 4.05 10.2744L8.6025 14.8269C8.82 15.0444 9.18 15.0444 9.3975 14.8269L13.95 10.2744C14.1675 10.0569 14.1675 9.69687 13.95 9.47936C13.845 9.36687 13.695 9.31437 13.5525 9.31437Z" fill="#1F3832" stroke="#292D32" stroke-width="0.5"/>
  <path d="M9 14.9374C8.6925 14.9374 8.4375 14.7103 8.4375 14.4363V3.19107C8.4375 2.91712 8.6925 2.68994 9 2.68994C9.3075 2.68994 9.5625 2.91712 9.5625 3.19107V14.4363C9.5625 14.7103 9.3075 14.9374 9 14.9374Z" fill="#1F3832" stroke="#292D32" stroke-width="0.5"/>
</svg>