<svg xmlns="http://www.w3.org/2000/svg" width="20" height="20" viewBox="0 0 20 20" fill="none">
  <path d="M9.58335 18.1267C4.87502 18.1267 1.04169 14.2934 1.04169 9.58506C1.04169 4.87673 4.87502 1.0434 9.58335 1.0434C14.2917 1.0434 18.125 4.87673 18.125 9.58506C18.125 14.2934 14.2917 18.1267 9.58335 18.1267ZM9.58335 2.2934C5.55835 2.2934 2.29169 5.5684 2.29169 9.58506C2.29169 13.6017 5.55835 16.8767 9.58335 16.8767C13.6084 16.8767 16.875 13.6017 16.875 9.58506C16.875 5.5684 13.6084 2.2934 9.58335 2.2934Z" fill="#292D32"/>
  <path d="M18.3333 18.9601C18.175 18.9601 18.0167 18.9017 17.8917 18.7767L16.225 17.1101C15.9833 16.8684 15.9833 16.4684 16.225 16.2267C16.4667 15.9851 16.8667 15.9851 17.1083 16.2267L18.775 17.8934C19.0167 18.1351 19.0167 18.5351 18.775 18.7767C18.65 18.9017 18.4917 18.9601 18.3333 18.9601Z" fill="#292D32"/>
</svg>