<svg xmlns="http://www.w3.org/2000/svg" width="16" height="16" viewBox="0 0 16 16" fill="none">
  <path fill-rule="evenodd" clip-rule="evenodd" d="M8 15.5017C12.1421 15.5017 15.5 12.1438 15.5 8.00171C15.5 3.85957 12.1421 0.501709 8 0.501709C3.85786 0.501709 0.5 3.85957 0.5 8.00171C0.5 12.1438 3.85786 15.5017 8 15.5017ZM9.98872 6.99045C10.2084 6.77078 10.2084 6.41462 9.98872 6.19495C9.76905 5.97528 9.4129 5.97528 9.19323 6.19495L7.99999 7.38819L6.80674 6.19495C6.58707 5.97528 6.23092 5.97528 6.01125 6.19495C5.79158 6.41462 5.79158 6.77078 6.01125 6.99045L7.20449 8.18369L6.01125 9.37693C5.79158 9.5966 5.79158 9.95276 6.01125 10.1724C6.23092 10.3921 6.58707 10.3921 6.80674 10.1724L7.99999 8.97919L9.19323 10.1724C9.4129 10.3921 9.76905 10.3921 9.98872 10.1724C10.2084 9.95276 10.2084 9.5966 9.98872 9.37693L8.79548 8.18369L9.98872 6.99045Z" fill="#292929" fill-opacity="0.5"/>
</svg>