<svg xmlns="http://www.w3.org/2000/svg" width="18" height="18" viewBox="0 0 18 18" fill="none">
  <g clip-path="url(#clip0_15_704)">
    <path d="M7.875 0C6.63398 0 5.625 1.00898 5.625 2.25V10.125C5.625 11.366 6.63398 12.375 7.875 12.375H15.75C16.991 12.375 18 11.366 18 10.125V2.25C18 1.00898 16.991 0 15.75 0H7.875ZM2.25 5.625C1.00898 5.625 0 6.63398 0 7.875V15.75C0 16.991 1.00898 18 2.25 18H10.125C11.366 18 12.375 16.991 12.375 15.75V13.5H10.125V15.75H2.25V7.875H4.5V5.625H2.25Z" fill="#1F3832"/>
  </g>
  <defs>
    <clipPath id="clip0_15_704">
      <rect width="18" height="18" fill="white"/>
    </clipPath>
  </defs>
</svg>