<svg xmlns="http://www.w3.org/2000/svg" width="20" height="20" viewBox="0 0 20 20" fill="none">
  <path d="M17.0833 18.9617H2.91667C2.57501 18.9617 2.29167 18.6783 2.29167 18.3367C2.29167 17.995 2.57501 17.7117 2.91667 17.7117H17.0833C17.425 17.7117 17.7083 17.995 17.7083 18.3367C17.7083 18.6783 17.425 18.9617 17.0833 18.9617Z" fill="#292D32" stroke="#292D32" stroke-width="0.5"/>
  <path d="M15.0583 9.79727C14.9 9.79727 14.7417 9.8556 14.6167 9.9806L9.99999 14.5973L5.38332 9.9806C5.14166 9.73893 4.74166 9.73893 4.49999 9.9806C4.25832 10.2223 4.25832 10.6223 4.49999 10.8639L9.55832 15.9223C9.79999 16.1639 10.2 16.1639 10.4417 15.9223L15.5 10.8639C15.7417 10.6223 15.7417 10.2223 15.5 9.9806C15.3833 9.8556 15.2167 9.79727 15.0583 9.79727Z" fill="#292D32" stroke="#292D32" stroke-width="0.5"/>
  <path d="M10 16.0451C9.65833 16.0451 9.375 15.7927 9.375 15.4883V2.99357C9.375 2.68919 9.65833 2.43677 10 2.43677C10.3417 2.43677 10.625 2.68919 10.625 2.99357V15.4883C10.625 15.7927 10.3417 16.0451 10 16.0451Z" fill="#292D32" stroke="#292D32" stroke-width="0.5"/>
</svg>