<svg xmlns="http://www.w3.org/2000/svg" width="24" height="24" viewBox="0 0 24 24" fill="none">
  <path d="M20.5 22.75H3.5C3.09 22.75 2.75 22.41 2.75 22C2.75 21.59 3.09 21.25 3.5 21.25H20.5C20.91 21.25 21.25 21.59 21.25 22C21.25 22.41 20.91 22.75 20.5 22.75Z" fill="white" stroke="white" stroke-width="0.5"/>
  <path d="M18.0701 11.7524C17.8801 11.7524 17.6901 11.8224 17.5401 11.9724L12.0001 17.5124L6.46012 11.9724C6.17012 11.6824 5.69012 11.6824 5.40012 11.9724C5.11012 12.2624 5.11012 12.7424 5.40012 13.0324L11.4701 19.1024C11.7601 19.3924 12.2401 19.3924 12.5301 19.1024L18.6001 13.0324C18.8901 12.7424 18.8901 12.2624 18.6001 11.9724C18.4601 11.8224 18.2601 11.7524 18.0701 11.7524Z" fill="white" stroke="white" stroke-width="0.5"/>
  <path d="M12 19.25C11.59 19.25 11.25 18.9471 11.25 18.5819V3.58821C11.25 3.22295 11.59 2.92004 12 2.92004C12.41 2.92004 12.75 3.22295 12.75 3.58821V18.5819C12.75 18.9471 12.41 19.25 12 19.25Z" fill="white" stroke="white" stroke-width="0.5"/>
</svg>