<svg xmlns="http://www.w3.org/2000/svg" width="20" height="20" viewBox="0 0 20 20" fill="none">
  <g clip-path="url(#clip0_16_730)">
    <path d="M2.76025 9.98944C2.76025 7.66928 2.76025 5.34913 2.76025 3.02897C2.76025 1.82802 3.58813 1.00014 4.78908 0.998047C6.88078 0.998047 8.97249 1.00224 11.0642 0.998047C11.6448 0.998047 12.1331 1.19716 12.5523 1.59538C13.6212 2.61398 14.6922 3.63049 15.7695 4.63862C16.2515 5.08924 16.4758 5.62998 16.4737 6.29228C16.4653 9.87207 16.4716 13.4519 16.4695 17.0316C16.4695 17.9685 15.8764 18.7293 14.973 18.9473C14.8263 18.9829 14.6733 18.9976 14.5224 18.9976C11.2528 18.9997 7.98532 19.0018 4.71572 18.9976C3.61328 18.9976 2.76235 18.1425 2.76235 17.0358C2.76025 14.6884 2.76025 12.3389 2.76025 9.98944ZM10.9866 2.05438H10.7771C8.77967 2.05438 6.78228 2.05438 4.78489 2.05438C4.17289 2.05438 3.81449 2.41278 3.81449 3.02478C3.81449 7.67557 3.81449 12.3285 3.81449 16.9793C3.81449 17.5871 4.17498 17.9455 4.78908 17.9476C8.00419 17.9476 11.2214 17.9476 14.4365 17.9476C15.0611 17.9476 15.4174 17.5913 15.4174 16.9688C15.4174 13.4707 15.4174 9.97477 15.4174 6.47672C15.4174 6.41384 15.4174 6.35096 15.4174 6.27342H15.2099C14.2311 6.27342 13.2544 6.27342 12.2756 6.27342C12.1939 6.27342 12.11 6.27342 12.0304 6.25874C11.3912 6.13928 10.9887 5.65094 10.9887 4.99702C10.9887 4.02452 10.9887 3.05202 10.9887 2.05438H10.9866ZM14.841 5.21918C13.8937 4.32214 12.9798 3.46072 12.0409 2.56997C12.0409 3.39366 12.0409 4.17333 12.0409 4.95091C12.0409 5.16888 12.0912 5.21918 12.3071 5.21918C13.0909 5.21918 13.8748 5.21918 14.6587 5.21918H14.841Z" fill="#292929"/>
    <path d="M9.52792 8.03174C10.7876 8.03174 12.0451 8.03174 13.3047 8.03174C13.6631 8.03174 13.9021 8.24133 13.9042 8.55571C13.9042 8.87219 13.6673 9.08597 13.3131 9.08597C10.7771 9.08597 8.24104 9.08597 5.7071 9.08597C5.35499 9.08597 5.11397 8.868 5.11816 8.55362C5.12025 8.24133 5.35918 8.03174 5.71758 8.03174C6.9877 8.03174 8.2599 8.03174 9.53002 8.03174H9.52792Z" fill="#292929"/>
    <path d="M9.50903 11.899C8.2431 11.899 6.97928 11.899 5.71336 11.899C5.35706 11.899 5.11812 11.6873 5.11603 11.375C5.11603 11.0606 5.35286 10.8447 5.70707 10.8447C8.2431 10.8447 10.7791 10.8447 13.3131 10.8447C13.6673 10.8447 13.9062 11.0627 13.902 11.3771C13.8978 11.6852 13.6631 11.8969 13.3194 11.899C12.0493 11.899 10.777 11.899 9.50693 11.899H9.50903Z" fill="#292929"/>
    <path d="M6.90797 14.7117C6.50346 14.7117 6.10105 14.7117 5.69654 14.7117C5.35491 14.7117 5.11808 14.4958 5.11598 14.1898C5.11388 13.8817 5.35072 13.6596 5.68816 13.6575C6.51394 13.6575 7.33763 13.6575 8.16341 13.6575C8.48199 13.6575 8.72721 13.8859 8.7314 14.1793C8.73559 14.4791 8.48618 14.7096 8.15503 14.7117C7.74004 14.7117 7.32505 14.7117 6.90797 14.7117Z" fill="#292929"/>
  </g>
  <defs>
    <clipPath id="clip0_16_730">
      <rect width="20" height="20" fill="white" transform="translate(0 0.00341797)"/>
    </clipPath>
  </defs>
</svg>