<svg xmlns="http://www.w3.org/2000/svg" width="16" height="16" viewBox="0 0 16 16" fill="none">
  <path d="M14.9414 8.91148C14.7762 10.1712 14.2712 11.3621 13.4806 12.3566C12.69 13.3511 11.6436 14.1117 10.4536 14.5567C9.26357 15.0017 7.97488 15.1143 6.72572 14.8826C5.47655 14.6508 4.31403 14.0834 3.36284 13.2412C2.41164 12.399 1.70766 11.3137 1.32638 10.1018C0.945098 8.88987 0.900909 7.59703 1.19855 6.3619C1.49619 5.12678 2.12444 3.99598 3.01591 3.09077C3.90738 2.18557 5.02844 1.5401 6.25887 1.22361C9.66977 0.348796 13.2005 2.10455 14.504 5.37635" stroke="#18B8BF" stroke-width="1.5" stroke-linecap="round" stroke-linejoin="round"/>
  <path d="M14.9999 1.0022V5.37627H10.6259" stroke="#18B8BF" stroke-width="1.5" stroke-linecap="round" stroke-linejoin="round"/>
</svg>