<svg xmlns="http://www.w3.org/2000/svg" width="18" height="18" viewBox="0 0 18 18" fill="none">
  <path d="M16.9331 10.0436C16.7442 11.4836 16.167 12.845 15.2632 13.9818C14.3595 15.1186 13.1633 15.988 11.803 16.4966C10.4427 17.0053 8.96964 17.1341 7.54172 16.8692C6.1138 16.6043 4.78492 15.9557 3.69761 14.9929C2.6103 14.0302 1.80557 12.7896 1.36973 11.4043C0.933892 10.0189 0.88338 8.54106 1.22362 7.12919C1.56385 5.71733 2.282 4.42471 3.30104 3.38996C4.32007 2.35522 5.60156 1.61739 7.00806 1.25561C10.9071 0.255608 14.9431 2.26261 16.4331 6.00261" stroke="#1F3832" stroke-width="1.5" stroke-linecap="round" stroke-linejoin="round"/>
  <path d="M17.0001 1.00256V6.00256H12.0001" stroke="#1F3832" stroke-width="1.5" stroke-linecap="round" stroke-linejoin="round"/>
</svg>