<svg xmlns="http://www.w3.org/2000/svg" width="20" height="20" viewBox="0 0 20 20" fill="none">
  <path d="M9.58335 18.1267C4.87502 18.1267 1.04169 14.2933 1.04169 9.585C1.04169 4.87667 4.87502 1.04333 9.58335 1.04333C14.2917 1.04333 18.125 4.87667 18.125 9.585C18.125 14.2933 14.2917 18.1267 9.58335 18.1267ZM9.58335 2.29333C5.55835 2.29333 2.29169 5.56834 2.29169 9.585C2.29169 13.6017 5.55835 16.8767 9.58335 16.8767C13.6084 16.8767 16.875 13.6017 16.875 9.585C16.875 5.56834 13.6084 2.29333 9.58335 2.29333Z" fill="#292D32"/>
  <path d="M18.3333 18.96C18.175 18.96 18.0167 18.9017 17.8917 18.7767L16.225 17.11C15.9833 16.8683 15.9833 16.4683 16.225 16.2267C16.4667 15.985 16.8667 15.985 17.1083 16.2267L18.775 17.8933C19.0167 18.135 19.0167 18.535 18.775 18.7767C18.65 18.9017 18.4917 18.96 18.3333 18.96Z" fill="#292D32"/>
</svg>