<svg xmlns="http://www.w3.org/2000/svg" width="25" height="24" viewBox="0 0 25 24" fill="none">
  <path d="M21.4271 3.07293C20.7251 2.37093 19.731 2.09493 18.765 2.33593L5.65221 5.61395C3.90421 6.05095 2.73808 7.55493 2.75108 9.35693C2.76408 11.1589 3.95021 12.6459 5.70421 13.0589L10.3502 14.1519L11.4432 18.7969C11.8562 20.5509 13.3431 21.7369 15.1451 21.7499C15.1541 21.7499 15.1642 21.7499 15.1732 21.7499C16.9622 21.7499 18.4521 20.5869 18.8871 18.8489L22.1651 5.73593C22.4051 4.77093 22.1301 3.77593 21.4271 3.07293ZM20.7091 5.37195L17.431 18.4849C17.102 19.7979 16.0412 20.2579 15.1542 20.2499C14.3092 20.2439 13.2132 19.7699 12.9032 18.4539L11.7992 13.7629L16.0301 9.53094C16.3231 9.23794 16.3231 8.76294 16.0301 8.46994C15.7371 8.17694 15.2621 8.17694 14.9691 8.46994L10.7372 12.7019L6.04601 11.5979C4.72901 11.2879 4.25513 10.1909 4.24913 9.34594C4.24313 8.50094 4.70202 7.39694 6.01402 7.06894L19.1271 3.79092C19.2341 3.76392 19.3421 3.75094 19.4481 3.75094C19.7881 3.75094 20.1161 3.88494 20.3651 4.13394C20.6921 4.45994 20.8211 4.92295 20.7091 5.37195Z" fill="white"/>
</svg>