<svg xmlns="http://www.w3.org/2000/svg" width="18" height="18" viewBox="0 0 18 18" fill="none">
  <path d="M15.3751 17.0642H2.62506C2.31756 17.0642 2.06256 16.8092 2.06256 16.5017C2.06256 16.1942 2.31756 15.9392 2.62506 15.9392H15.3751C15.6826 15.9392 15.9376 16.1942 15.9376 16.5017C15.9376 16.8092 15.6826 17.0642 15.3751 17.0642Z" fill="white" stroke="white" stroke-width="0.5"/>
  <path d="M13.5526 7.74166C13.4101 7.74166 13.2676 7.68917 13.1551 7.57667L9.00006 3.42166L4.84506 7.57667C4.62756 7.79417 4.26756 7.79417 4.05006 7.57667C3.83256 7.35917 3.83256 6.99917 4.05006 6.78166L8.60256 2.22917C8.82006 2.01167 9.18006 2.01167 9.39756 2.22917L13.9501 6.78166C14.1676 6.99917 14.1676 7.35917 13.9501 7.57667C13.8451 7.68917 13.6951 7.74166 13.5526 7.74166Z" fill="white" stroke="white" stroke-width="0.5"/>
  <path d="M9.00006 14.4391C8.69256 14.4391 8.43756 14.212 8.43756 13.938V2.69278C8.43756 2.41883 8.69256 2.19165 9.00006 2.19165C9.30756 2.19165 9.56256 2.41883 9.56256 2.69278V13.938C9.56256 14.212 9.30756 14.4391 9.00006 14.4391Z" fill="white" stroke="white" stroke-width="0.5"/>
</svg>