<svg xmlns="http://www.w3.org/2000/svg" width="16" height="16" viewBox="0 0 16 16" fill="none">
  <path d="M7.99949 2C8.3878 2 8.74603 2.20509 8.94292 2.54145L14.8496 12.6047C15.0492 12.9438 15.0492 13.3621 14.8551 13.7012C14.6609 14.0403 14.2972 14.2509 13.9062 14.2509H2.09282C1.70178 14.2509 1.33808 14.0403 1.14392 13.7012C0.949768 13.3621 0.952503 12.941 1.14939 12.6047L7.05607 2.54145C7.25295 2.20509 7.61118 2 7.99949 2ZM7.99949 5.50025C7.63579 5.50025 7.34319 5.79285 7.34319 6.15655V9.21927C7.34319 9.58296 7.63579 9.87556 7.99949 9.87556C8.36319 9.87556 8.65579 9.58296 8.65579 9.21927V6.15655C8.65579 5.79285 8.36319 5.50025 7.99949 5.50025ZM8.87455 11.6257C8.87455 11.1417 8.48351 10.7506 7.99949 10.7506C7.51547 10.7506 7.12443 11.1417 7.12443 11.6257C7.12443 12.1097 7.51547 12.5008 7.99949 12.5008C8.48351 12.5008 8.87455 12.1097 8.87455 11.6257Z" fill="#D72B28"/>
</svg>